<svg focusable="false" viewBox="0 0 189 50" fill="none" xmlns="http://www.w3.org/2000/svg">
    <path
        d="M22.8965 11.9023H22.1792C21.94 11.9023 21.7607 12.0819 21.7607 12.3213V20.9389L16.2309 12.0819C16.1412 11.9622 16.0216 11.9023 15.8722 11.9023H15.1548C14.9157 11.9023 14.7363 12.0819 14.7363 12.3213V23.6917C14.7363 23.9311 14.9157 24.1106 15.1548 24.1106H15.8722C16.1113 24.1106 16.2907 23.9311 16.2907 23.6917V15.0143L21.9101 23.9011C21.9998 24.0208 22.1194 24.0807 22.2688 24.0807H22.9264C23.1656 24.0807 23.3449 23.9011 23.3449 23.6618V12.2913C23.315 12.0819 23.1357 11.9023 22.8965 11.9023Z"
        fill="currentColor" />
    <path
        d="M28.7248 11.5127C29.233 11.5127 29.6514 11.0638 29.6514 10.5552C29.6514 10.0465 29.233 9.59766 28.7248 9.59766C28.2167 9.59766 27.7683 10.0465 27.7683 10.5552C27.7683 11.0638 28.1868 11.5127 28.7248 11.5127Z"
        fill="currentColor" />
    <path
        d="M31.8637 11.5127C32.3719 11.5127 32.8202 11.0938 32.8202 10.5552C32.8202 10.0166 32.3719 9.59766 31.8637 9.59766C31.3556 9.59766 30.9072 10.0465 30.9072 10.5552C30.9072 11.0638 31.3556 11.5127 31.8637 11.5127Z"
        fill="currentColor" />
    <path
        d="M31.0561 12.1404C30.9963 11.9609 30.8469 11.8711 30.6675 11.8711H29.8605C29.6811 11.8711 29.5317 11.9908 29.4719 12.1404L25.4964 23.5407C25.4665 23.6604 25.4665 23.81 25.5562 23.8998C25.6458 24.0195 25.7654 24.0793 25.885 24.0793H26.6621C26.8415 24.0793 26.9909 23.9597 27.0507 23.81L28.0371 20.9375H32.4908L33.4772 23.81C33.537 23.9896 33.6865 24.0793 33.8658 24.0793H34.643C34.7626 24.0793 34.912 24.0195 34.9718 23.8998C35.0615 23.7801 35.0615 23.6604 35.0316 23.5108L31.0561 12.1404ZM31.9827 19.4414H28.5453L30.2789 14.4444L31.9827 19.4414Z"
        fill="currentColor" />
    <path
        d="M45.4936 15.4019C45.4936 13.1278 44.0589 11.8711 41.4285 11.8711H37.6323C37.3932 11.8711 37.2139 12.0506 37.2139 12.29V23.6604C37.2139 23.8998 37.3932 24.0793 37.6323 24.0793H38.3796C38.6187 24.0793 38.7981 23.8998 38.7981 23.6604V19.0225H41.2491L43.6703 23.84C43.7301 23.9896 43.8795 24.0793 44.029 24.0793H44.8958C45.0453 24.0793 45.1648 23.9896 45.2545 23.8699C45.3143 23.7502 45.3442 23.6006 45.2844 23.4809L42.923 18.813C44.567 18.3642 45.4936 17.1374 45.4936 15.4019ZM43.9393 15.4318C43.9393 16.898 43.1024 17.5264 41.2192 17.5264H38.7981V13.3971H41.3986C43.1622 13.3971 43.9393 14.0255 43.9393 15.4318Z"
        fill="currentColor" />
    <path
        d="M48.2437 24.0793H48.9909C49.2301 24.0793 49.4094 23.8998 49.4094 23.6604V12.29C49.4094 12.0506 49.2301 11.8711 48.9909 11.8711H48.2437C48.0045 11.8711 47.8252 12.0506 47.8252 12.29V23.6604C47.8252 23.8998 48.0045 24.0793 48.2437 24.0793Z"
        fill="currentColor" />
    <path
        d="M52.6079 24.0793H53.3253C53.5644 24.0793 53.7438 23.8998 53.7438 23.6604V14.983L59.3633 23.8699C59.4529 23.9896 59.5725 24.0494 59.722 24.0494H60.3796C60.6187 24.0494 60.798 23.8699 60.798 23.6305V12.29C60.798 12.0506 60.6187 11.8711 60.3796 11.8711H59.6622C59.423 11.8711 59.2437 12.0506 59.2437 12.29V20.9076L53.684 12.0805C53.5943 11.9609 53.4748 11.901 53.3253 11.901H52.6079C52.3688 11.901 52.1895 12.0805 52.1895 12.3199V23.6904C52.1895 23.8998 52.3688 24.0793 52.6079 24.0793Z"
        fill="currentColor" />
    <path
        d="M68.0611 24.2601C70.841 24.2601 72.5149 22.345 72.5149 19.1434V18.3355C72.5149 18.0961 72.3355 17.9165 72.0964 17.9165H68.8981C68.6589 17.9165 68.4796 18.0961 68.4796 18.3355V19.0237C68.4796 19.263 68.6589 19.4426 68.8981 19.4426H70.9605C70.9007 21.597 69.9143 22.7639 68.091 22.7639C66.0584 22.7639 64.6536 20.7891 64.6536 17.9764C64.6536 15.1637 66.0584 13.2188 68.091 13.2188C69.2269 13.2188 69.9143 13.5479 70.6018 14.4157C70.6616 14.5054 70.7812 14.5653 70.8709 14.5653C70.9904 14.5653 71.0801 14.5353 71.1698 14.4755L71.7377 13.9967C71.8871 13.8471 71.917 13.6078 71.7975 13.4282C70.9904 12.3211 69.7051 11.7227 68.091 11.7227C65.1318 11.7227 63.0693 14.3259 63.0693 18.0063C63.0693 21.6867 65.1019 24.2601 68.0611 24.2601Z"
        fill="currentColor" />
    <path
        d="M77.9849 24.2587C80.3463 24.2587 81.9305 22.8823 81.9305 20.8177C81.9305 18.9625 81.0637 18.0648 78.3436 17.0774C76.1317 16.2695 75.7431 15.7907 75.7431 14.8931C75.7431 14.0852 76.311 13.2174 77.9251 13.2174C79.1208 13.2174 79.8381 13.5765 80.5555 14.1151C80.7349 14.2348 80.974 14.2049 81.1235 14.0553L81.6017 13.4568C81.6615 13.367 81.7213 13.2474 81.6914 13.1277C81.6914 13.008 81.6316 12.9182 81.512 12.8584C80.5555 12.1702 79.5691 11.6914 77.955 11.6914C75.6833 11.6914 74.1589 12.9781 74.1589 14.923C74.1589 16.6884 74.9659 17.4963 77.6262 18.4837C79.6887 19.2318 80.3164 19.8003 80.3164 20.8177C80.3164 22.224 79.0909 22.7327 77.955 22.7327C76.8789 22.7327 75.9822 22.3736 75.0257 21.5956C74.8464 21.446 74.6072 21.476 74.4578 21.6256L73.9496 22.1642C73.8899 22.2539 73.8301 22.3437 73.8301 22.4634C73.8301 22.5831 73.8899 22.6728 73.9795 22.7626C75.1453 23.75 76.4904 24.2587 77.9849 24.2587Z"
        fill="currentColor" />
    <path
        d="M84.6802 24.0793H91.047C91.2861 24.0793 91.4654 23.8998 91.4654 23.6604V22.9722C91.4654 22.7329 91.2861 22.5533 91.047 22.5533H85.8459V12.29C85.8459 12.0506 85.6666 11.8711 85.4275 11.8711H84.6802C84.4411 11.8711 84.2617 12.0506 84.2617 12.29V23.6604C84.2916 23.8998 84.471 24.0793 84.6802 24.0793Z"
        fill="currentColor" />
    <path
        d="M93.9468 24.0793H94.694C94.9332 24.0793 95.1125 23.8998 95.1125 23.6604V12.29C95.1125 12.0506 94.9332 11.8711 94.694 11.8711H93.9468C93.7077 11.8711 93.5283 12.0506 93.5283 12.29V23.6604C93.5283 23.8998 93.7077 24.0793 93.9468 24.0793Z"
        fill="currentColor" />
    <path
        d="M106.411 11.9023H105.634C105.454 11.9023 105.305 12.022 105.245 12.1716L102.077 21.5672L98.9081 12.1716C98.8484 11.9921 98.6989 11.9023 98.5196 11.9023H97.7424C97.6228 11.9023 97.4734 11.9622 97.4136 12.0819C97.3239 12.2016 97.3239 12.3213 97.3538 12.4409L101.27 23.8413C101.329 24.0208 101.479 24.1106 101.658 24.1106H102.495C102.674 24.1106 102.824 23.9909 102.884 23.8413L106.799 12.4409C106.829 12.3213 106.829 12.1716 106.74 12.0819C106.68 11.9622 106.56 11.9023 106.411 11.9023Z"
        fill="currentColor" />
    <path
        d="M112.449 17.0787C110.237 16.2708 109.849 15.7921 109.849 14.8944C109.849 14.0865 110.416 13.2188 112.031 13.2188C113.226 13.2188 113.944 13.5778 114.661 14.1164C114.84 14.2361 115.079 14.2062 115.229 14.0566L115.707 13.4581C115.767 13.3684 115.827 13.2487 115.797 13.1589C115.767 13.0692 115.737 12.9495 115.618 12.8896C114.661 12.2014 113.675 11.7227 112.06 11.7227C109.789 11.7227 108.264 13.0093 108.264 14.9543C108.264 16.7197 109.071 17.5276 111.732 18.515C113.794 19.263 114.422 19.8316 114.422 20.8489C114.422 22.2553 113.196 22.7639 112.06 22.7639C110.984 22.7639 110.088 22.4049 109.131 21.6269C108.952 21.4773 108.713 21.5072 108.563 21.6568L108.055 22.1954C107.995 22.2852 107.936 22.375 107.936 22.4946C107.936 22.6143 107.995 22.7041 108.085 22.7939C109.191 23.7514 110.536 24.2601 112.001 24.2601C114.362 24.2601 115.946 22.8836 115.946 20.819C116.036 18.9937 115.169 18.0662 112.449 17.0787Z"
        fill="currentColor" />
    <path
        d="M124.794 17.4067C125.512 16.898 125.9 16.0303 125.9 14.983C125.9 13.0381 124.615 11.8711 122.463 11.8711H118.816C118.577 11.8711 118.397 12.0506 118.397 12.29V23.6604C118.397 23.8998 118.577 24.0793 118.816 24.0793H122.493C125.063 24.0793 126.558 22.7328 126.558 20.369C126.558 18.6036 125.512 17.7658 124.794 17.4067ZM122.403 16.7783H119.952V13.3971H122.433C123.3 13.3971 124.346 13.6664 124.346 15.0428C124.346 16.15 123.658 16.7783 122.403 16.7783ZM122.522 22.5832H119.952V18.2744H122.463C124.017 18.2744 125.003 19.0823 125.003 20.4288C124.973 21.8352 124.137 22.5832 122.522 22.5832Z"
        fill="currentColor" />
    <path
        d="M133.224 11.7227C130.175 11.7227 128.112 14.2361 128.112 18.0063C128.112 21.7765 130.145 24.29 133.194 24.29C136.213 24.29 138.305 21.6867 138.305 17.9764C138.305 14.2361 136.273 11.7227 133.224 11.7227ZM133.224 22.7639C131.101 22.7639 129.697 20.819 129.697 17.9465C129.697 15.1039 131.101 13.2188 133.194 13.2188C135.316 13.2188 136.721 15.1338 136.721 18.0063C136.751 20.8489 135.316 22.7639 133.224 22.7639Z"
        fill="currentColor" />
    <path
        d="M147.361 22.5832H142.16V12.29C142.16 12.0506 141.981 11.8711 141.742 11.8711H140.995C140.756 11.8711 140.576 12.0506 140.576 12.29V23.6604C140.576 23.8998 140.756 24.0793 140.995 24.0793H147.361C147.601 24.0793 147.78 23.8998 147.78 23.6604V22.9722C147.75 22.7628 147.571 22.5832 147.361 22.5832Z"
        fill="currentColor" />
    <path
        d="M154.775 12.1404L154.715 12.1703L154.775 12.1404C154.715 11.9609 154.566 11.8711 154.386 11.8711H153.579C153.4 11.8711 153.25 11.9908 153.191 12.1404L149.215 23.5407C149.185 23.6604 149.185 23.81 149.275 23.8998C149.365 24.0195 149.484 24.0793 149.604 24.0793H150.381C150.56 24.0793 150.71 23.9597 150.769 23.81L151.756 20.9375H156.21L157.196 23.81C157.256 23.9896 157.405 24.0793 157.585 24.0793H158.362C158.481 24.0793 158.631 24.0195 158.691 23.8998C158.78 23.7801 158.78 23.6604 158.75 23.5108L154.775 12.1404ZM155.701 19.4414H152.264L153.998 14.4444L155.701 19.4414Z"
        fill="currentColor" />
    <path
        d="M169.182 17.9458H165.983C165.744 17.9458 165.565 18.1254 165.565 18.3648V19.053C165.565 19.2923 165.744 19.4719 165.983 19.4719H168.046C167.986 21.6263 167 22.7932 165.176 22.7932C163.144 22.7932 161.739 20.8184 161.739 18.0057C161.739 15.193 163.144 13.2481 165.176 13.2481C166.312 13.2481 167 13.5772 167.687 14.445C167.747 14.5347 167.867 14.5946 167.986 14.5946C168.106 14.5946 168.195 14.5646 168.285 14.5048L168.853 14.026C169.002 13.8764 169.032 13.6371 168.913 13.4575C168.106 12.3504 166.82 11.752 165.206 11.752C162.247 11.752 160.185 14.3552 160.185 18.0356C160.185 21.716 162.247 24.2893 165.176 24.2893C167.956 24.2893 169.63 22.3743 169.63 19.1727V18.3648C169.6 18.1254 169.421 17.9458 169.182 17.9458Z"
        fill="currentColor" />
    <path
        d="M178.867 22.5832H173.337V18.3642H176.356C176.595 18.3642 176.775 18.1847 176.775 17.9453V17.2571C176.775 17.0177 176.595 16.8382 176.356 16.8382H173.337V13.3971H178.598C178.837 13.3971 179.016 13.2176 179.016 12.9782V12.29C179.016 12.0506 178.837 11.8711 178.598 11.8711H172.171C171.932 11.8711 171.753 12.0506 171.753 12.29V23.6604C171.753 23.8998 171.932 24.0793 172.171 24.0793H178.837C179.076 24.0793 179.255 23.8998 179.255 23.6604V22.9722C179.255 22.7628 179.076 22.5832 178.867 22.5832Z"
        fill="currentColor" />
    <path
        d="M188.581 11.9023H180.78C180.541 11.9023 180.361 12.0819 180.361 12.3213V13.0095C180.361 13.2488 180.541 13.4284 180.78 13.4284H183.888V23.7216C183.888 23.961 184.068 24.1405 184.307 24.1405H185.054C185.293 24.1405 185.473 23.961 185.473 23.7216V13.3985H188.581C188.82 13.3985 189 13.2189 189 12.9795V12.2913C189 12.0819 188.82 11.9023 188.581 11.9023Z"
        fill="currentColor" />
    <path
        d="M18.5321 33.6842C16.3202 32.8763 15.9316 32.3975 15.9316 31.4999C15.9316 30.692 16.4995 29.8242 18.1136 29.8242C19.3092 29.8242 20.0266 30.1833 20.744 30.7219C20.9234 30.8416 21.1625 30.8117 21.3119 30.6621L21.7902 30.0636C21.85 29.9738 21.9098 29.8542 21.8799 29.7644C21.8799 29.6447 21.8201 29.5549 21.7005 29.4951C20.744 28.8069 19.7576 28.3281 18.1435 28.3281C15.8718 28.3281 14.3474 29.6148 14.3474 31.5597C14.3474 33.3251 15.1544 34.133 17.8147 35.1205C19.8772 35.8685 20.5049 36.437 20.5049 37.4544C20.5049 38.8607 19.2794 39.3694 18.1435 39.3694C17.0674 39.3694 16.1707 39.0104 15.2142 38.2324C15.0348 38.0828 14.7957 38.1127 14.6463 38.2623L14.1381 38.8009C14.0783 38.8907 14.0186 38.9804 14.0186 39.1001C14.0186 39.2198 14.0783 39.3096 14.168 39.3993C15.2441 40.3568 16.6191 40.8655 18.0837 40.8655C20.4451 40.8655 22.0293 39.4891 22.0293 37.4245C22.119 35.5992 21.2522 34.6716 18.5321 33.6842Z"
        fill="currentColor" />
    <path
        d="M32.7003 28.5078H31.953C31.7139 28.5078 31.5345 28.6873 31.5345 28.9267V35.9285C31.5345 38.3223 30.6976 39.3995 28.7846 39.3995C26.8716 39.3995 25.9748 38.2924 25.9748 35.9285V28.9267C25.9748 28.6873 25.7955 28.5078 25.5564 28.5078H24.8091C24.57 28.5078 24.3906 28.6873 24.3906 28.9267V35.9285C24.3906 39.19 25.8852 40.8956 28.7547 40.8956C31.6242 40.8956 33.0889 39.22 33.0889 35.9285V28.9267C33.1188 28.6873 32.9095 28.5078 32.7003 28.5078Z"
        fill="currentColor" />
    <path
        d="M43.9098 28.5078H43.1924C42.9533 28.5078 42.774 28.6873 42.774 28.9267V37.5443L37.2143 28.7173C37.1246 28.5976 37.005 28.5377 36.8556 28.5377H36.1382C35.8991 28.5377 35.7197 28.7173 35.7197 28.9566V40.3271C35.7197 40.5665 35.8991 40.746 36.1382 40.746H36.8556C37.0947 40.746 37.2741 40.5665 37.2741 40.3271V31.6496L42.8935 40.5365C42.9832 40.6562 43.1028 40.7161 43.2522 40.7161H43.9098C44.149 40.7161 44.3283 40.5365 44.3283 40.2972V28.9267C44.2984 28.6873 44.1191 28.5078 43.9098 28.5078Z"
        fill="currentColor" />
    <path
        d="M50.3962 28.5078H47.437C47.1979 28.5078 47.0186 28.6873 47.0186 28.9267V40.2972C47.0186 40.5365 47.1979 40.7161 47.437 40.7161H50.2767C53.9233 40.7161 55.926 38.5317 55.926 34.5521C55.8961 30.6622 53.9532 28.5078 50.3962 28.5078ZM50.3663 39.22H48.6028V30.0039H50.3364C52.9967 30.0039 54.3418 31.53 54.3418 34.582C54.3418 37.6939 53.0266 39.22 50.3663 39.22Z"
        fill="currentColor" />
    <path
        d="M61.8436 33.6842C59.6317 32.8763 59.2431 32.3975 59.2431 31.4999C59.2431 30.692 59.811 29.8242 61.4251 29.8242C62.6208 29.8242 63.3381 30.1833 64.0555 30.7219C64.2349 30.8416 64.474 30.8117 64.6234 30.6621L65.1017 30.0636C65.1615 29.9738 65.2213 29.8542 65.1914 29.7644C65.1914 29.6447 65.1316 29.5549 65.012 29.4951C64.0555 28.8069 63.0691 28.3281 61.455 28.3281C59.1833 28.3281 57.6589 29.6148 57.6589 31.5597C57.6589 33.3251 58.4659 34.133 61.1262 35.1205C63.1887 35.8685 63.8164 36.437 63.8164 37.4544C63.8164 38.8607 62.5909 39.3694 61.455 39.3694C60.3789 39.3694 59.4822 39.0104 58.5257 38.2324C58.3464 38.0828 58.1072 38.1127 57.9578 38.2623L57.4496 38.8009C57.3899 38.8907 57.3301 38.9804 57.3301 39.1001C57.3301 39.2198 57.3899 39.3096 57.4795 39.3993C58.5556 40.3568 59.9306 40.8655 61.3952 40.8655C63.7566 40.8655 65.3408 39.4891 65.3408 37.4245C65.4305 35.5992 64.5637 34.6716 61.8436 33.6842Z"
        fill="currentColor" />
    <path
        d="M75.7731 28.5078H75.0258C74.8464 28.5078 74.697 28.6275 74.6372 28.7771L71.4389 38.1727L68.2704 28.7771C68.2107 28.5976 68.0612 28.5078 67.8819 28.5078H67.1047C66.9851 28.5078 66.8357 28.5677 66.7759 28.6873C66.6862 28.807 66.6862 28.9267 66.7161 29.0464L70.6318 40.4468C70.6916 40.6263 70.8411 40.7161 71.0204 40.7161H71.8573C72.0367 40.7161 72.1861 40.5964 72.2459 40.4468L76.1616 29.0464C76.1915 28.9267 76.1915 28.7771 76.1019 28.6873C76.0421 28.5677 75.9225 28.5078 75.7731 28.5078Z"
        fill="currentColor" />
    <path
        d="M81.9311 28.7478C81.8713 28.5683 81.7219 28.4785 81.5425 28.4785H80.7355C80.5561 28.4785 80.4067 28.5982 80.3469 28.7478L76.3714 40.1482C76.3415 40.2679 76.3415 40.4175 76.4312 40.5372C76.5208 40.6569 76.6404 40.7167 76.76 40.7167H77.5371C77.7165 40.7167 77.8659 40.597 77.9257 40.4474L78.9121 37.5749H83.3659L84.3523 40.4474C84.412 40.6269 84.5615 40.7167 84.7408 40.7167H85.518C85.6376 40.7167 85.787 40.6569 85.8468 40.5372C85.9365 40.4175 85.9365 40.2978 85.9066 40.1781L81.9311 28.7478ZM82.8577 36.0788H79.4203L81.1539 31.0817L82.8577 36.0788Z"
        fill="currentColor" />
    <path
        d="M94.8731 39.22H89.6721V28.9267C89.6721 28.6873 89.4928 28.5078 89.2536 28.5078H88.5064C88.2672 28.5078 88.0879 28.6873 88.0879 28.9267V40.2972C88.0879 40.5365 88.2672 40.7161 88.5064 40.7161H94.8731C95.1123 40.7161 95.2916 40.5365 95.2916 40.2972V39.6089C95.2617 39.3995 95.0824 39.22 94.8731 39.22Z"
        fill="currentColor" />
    <path
        d="M104.02 39.22H98.8186V28.9267C98.8186 28.6873 98.6393 28.5078 98.4001 28.5078H97.6529C97.4137 28.5078 97.2344 28.6873 97.2344 28.9267V40.2972C97.2344 40.5365 97.4137 40.7161 97.6529 40.7161H104.02C104.259 40.7161 104.438 40.5365 104.438 40.2972V39.6089C104.438 39.3995 104.259 39.22 104.02 39.22Z"
        fill="currentColor" />
    <path d="M5.97818 11.3027H0V41.2249H5.97818V11.3027Z" fill="currentColor" />
</svg>